<svg width="143" height="77" viewBox="0 0 143 77" fill="none" xmlns="http://www.w3.org/2000/svg">
<mask id="mask0_346_2396" style="mask-type:luminance" maskUnits="userSpaceOnUse" x="0" y="0" width="57" height="44">
<path fill-rule="evenodd" clip-rule="evenodd" d="M0.000244141 0.320801H56.0847V43.6342H0.000244141V0.320801Z" fill="white"/>
</mask>
<g mask="url(#mask0_346_2396)">
<path fill-rule="evenodd" clip-rule="evenodd" d="M38.2961 37.3793C37.026 37.679 35.7374 37.8474 34.4265 37.8676C35.0599 37.7341 35.6856 37.5792 36.3037 37.4034C36.9218 37.2272 37.5325 37.0305 38.1355 36.813C38.7388 36.5961 39.3345 36.3584 39.9232 36.1008C40.2175 35.9721 40.5099 35.8383 40.801 35.7001C41.0915 35.5615 41.3807 35.4177 41.6679 35.2695C41.7598 35.2085 41.8484 35.1421 41.9482 35.0828C42.048 35.0234 42.1584 34.9714 42.294 34.9394C42.176 35.1652 42.0125 35.2701 41.8225 35.3462C41.1388 35.9179 40.3915 36.3995 39.6563 36.9C39.2376 37.1849 38.7638 37.2689 38.2961 37.3793ZM1.08986 32.1513C1.07642 32.1334 1.05467 32.1167 1.05179 32.0974C1.04987 32.0836 1.07322 32.0663 1.08506 32.0506C1.09914 32.0669 1.11321 32.0836 1.12793 32.1013C1.11481 32.1186 1.10234 32.1346 1.08986 32.1513ZM46.4093 36.437C48.0991 35.0924 49.5624 33.5216 50.8663 31.8067C52.0839 30.2061 53.185 28.5272 53.862 26.6108C54.0363 26.1171 54.212 25.6137 54.1694 24.9675C53.536 26.8358 52.6633 28.4605 51.5113 29.9328C51.2857 30.3752 50.9604 30.7371 50.6216 31.0887L50.5435 31.0323C50.8609 30.5966 51.1786 30.1612 51.4959 29.7258C52.3389 28.3905 53.0382 26.9833 53.6016 25.5081C54.4311 23.3348 54.9558 21.0835 55.3147 18.7893C55.7005 16.3198 55.9843 13.8343 56.0732 11.3408C56.1733 8.53285 55.6061 5.79037 54.934 3.07419C54.673 2.01929 54.298 1.03433 53.4243 0.320801H52.7333C51.8222 1.11903 51.7643 2.20281 51.7586 3.29685C51.757 3.62827 51.8088 3.9613 51.8507 4.29175C52.0385 5.77433 52.3354 7.25144 52.4019 8.73915C52.5519 12.0867 52.4013 15.4298 51.9022 18.7495C51.2861 22.8465 49.7175 26.5473 47.2405 29.8545C46.6761 30.6081 46.1294 31.398 45.3776 31.9854C44.1876 32.9155 42.9281 33.7423 41.5902 34.4491C38.7395 35.9554 35.6776 36.7745 32.5182 37.2776C29.6534 37.7335 26.7704 37.8317 23.8768 37.6899C22.5866 37.6267 21.2903 37.575 20.0193 37.3527C17.4859 36.9093 15.0108 36.2272 12.6182 35.2724C9.89284 34.1848 7.25965 32.9207 4.90287 31.1375C3.92427 30.397 2.94278 29.6578 1.83845 29.1089C1.27861 28.8307 0.704047 28.5946 0.000244141 28.652C0.487148 29.4021 1.10426 29.9892 1.64107 30.7339C1.27061 30.6716 1.02236 30.5128 0.738918 30.4108C0.747555 30.6232 0.968933 30.6797 0.973412 30.8532C0.886716 30.978 0.721642 30.8109 0.614152 30.9867C1.26453 31.5504 2.0835 31.8209 2.81642 32.2415C2.14332 32.151 1.55437 31.7788 0.878079 31.7018C0.866242 31.852 1.04859 31.8914 0.994526 32.056C0.745316 32.0384 0.562967 31.7962 0.30224 31.8141C0.427325 32.1738 0.784985 32.3066 1.0294 32.5485C1.38098 32.8956 1.76903 33.2062 2.11997 33.6624C1.67849 33.5967 1.41265 33.288 1.02012 33.2919C1.06267 33.4943 1.21334 33.5716 1.33011 33.6791C1.53102 33.8646 1.73096 34.0529 1.75591 34.3516C1.77543 34.3574 1.79302 34.3644 1.8071 34.3731C1.82181 34.3821 1.83301 34.393 1.84069 34.4058C1.85509 34.4305 1.85413 34.4632 1.83429 34.5056C2.01088 34.5322 2.11709 34.6294 2.13949 34.811C2.24858 34.7475 2.29624 34.8524 2.36278 34.898C2.61583 35.0706 2.84745 35.2875 3.12129 35.4142C3.78383 35.7212 4.33375 36.1649 4.83537 36.685C5.289 37.1557 5.76055 37.6071 6.35815 37.8978C6.82266 38.0383 7.29356 38.1618 7.70977 38.4268C7.77983 38.4711 7.87516 38.4868 7.89532 38.5879C8.0364 38.5744 8.14804 38.6482 8.27057 38.7117C8.15252 38.7518 8.04631 38.7245 7.94042 38.6931C7.92507 38.6591 7.90971 38.6254 7.89404 38.5914C7.68577 38.6071 7.5207 38.4833 7.33707 38.4188C7.2315 38.3819 7.11409 38.2635 7.02388 38.4438L7.04307 38.4538C7.06899 38.4746 7.0949 38.4952 7.12113 38.5157L7.12401 38.5183C7.2459 38.5276 7.34475 38.5815 7.42345 38.6748C7.44744 38.6861 7.47143 38.697 7.49575 38.7085C7.55269 38.7278 7.60996 38.7473 7.66722 38.7666C7.71777 38.7791 7.76799 38.7916 7.81854 38.8041C7.83229 38.7836 7.85149 38.7711 7.8758 38.7669C7.88316 38.7849 7.8886 38.8035 7.89212 38.8224C8.35535 38.9196 8.82338 39.0098 9.20471 39.3171C9.35187 39.4355 9.50191 39.5327 9.66762 39.6274C10.4348 40.065 11.3795 40.064 12.0868 40.6361C12.1997 40.7275 12.3517 40.7185 12.4896 40.7436C13.0871 40.8523 13.694 40.6832 14.274 40.7423C16.4203 40.9601 18.5736 41.1411 20.6988 41.5302C21.0491 41.5944 21.4365 41.5325 21.7526 41.7975C21.8377 41.8687 22.0251 41.8251 22.1652 41.8216C22.9308 41.802 23.6845 41.9258 24.4452 42.0112C24.0722 42.1815 23.6816 42.3195 23.29 42.1366C22.8812 41.9454 22.4701 41.9823 22.052 42.0182C21.6831 42.05 21.3159 42.0991 20.9473 42.1344C20.8229 42.1462 20.6681 42.1879 20.5916 42.0612C20.4707 41.8617 20.2944 41.8883 20.1188 41.9066C19.8395 41.9358 19.557 41.9582 19.2841 42.0195C18.6497 42.1616 18.0435 42.0779 17.4424 41.8565C17.1679 41.7555 16.8886 41.6422 16.602 41.6024C15.276 41.4189 13.9346 41.3551 12.6172 41.1003L12.5043 41.1876C13.0596 41.3971 13.5549 41.7596 14.1729 41.8183C13.6096 41.836 13.0743 41.7712 12.606 41.4459C12.4582 41.3432 12.313 41.2408 12.1185 41.2761C12.1114 41.3166 12.1041 41.3573 12.0967 41.3981C12.2941 41.5671 12.5225 41.6656 12.7688 41.7497C14.8351 42.4536 16.976 42.8238 19.1146 43.214C20.6265 43.4899 22.1611 43.4331 23.6803 43.5935C24.5585 43.6859 25.4414 43.5913 26.3225 43.5987C26.5256 43.5079 26.7339 43.5464 26.9418 43.573C27.0925 43.5229 27.2477 43.5249 27.4035 43.5364C27.216 43.3503 26.9262 43.5152 26.7048 43.3022C27.1267 43.1739 27.5273 43.2108 27.924 43.3051C28.0119 43.3259 27.9249 43.3924 27.9144 43.4507C27.9108 43.47 27.916 43.4886 27.9387 43.504C28.0113 43.4937 28.0839 43.4832 28.1565 43.4726C28.2109 43.4658 28.2656 43.4591 28.32 43.4527C28.9649 43.3664 29.6118 43.2942 30.2542 43.1915C33.0032 42.752 35.6562 41.9813 38.1947 40.8308C38.9973 40.467 39.7683 40.0268 40.5863 39.7057C42.6801 38.8834 44.645 37.841 46.4093 36.437Z" fill="#EF9917"/>
</g>
<path fill-rule="evenodd" clip-rule="evenodd" d="M0.295471 31.8136C0.298031 31.8136 0.299951 31.814 0.302191 31.814C0.301871 31.812 0.300591 31.8108 0.299951 31.8088L0.295471 31.8136Z" fill="#EF9917"/>
<mask id="mask1_346_2396" style="mask-type:luminance" maskUnits="userSpaceOnUse" x="98" y="46" width="45" height="30">
<path fill-rule="evenodd" clip-rule="evenodd" d="M98.8067 46.3406H142.884V75.8258H98.8067V46.3406Z" fill="white"/>
</mask>
<g mask="url(#mask1_346_2396)">
<path fill-rule="evenodd" clip-rule="evenodd" d="M142.489 50.2261C141.93 48.3085 140.738 46.9969 138.749 46.5446C137.221 46.1965 135.701 46.3023 134.212 46.7977C132.184 47.4724 130.606 48.7952 129.172 50.3243C128.111 51.4556 127.17 52.6892 126.163 53.8663C126.102 53.9378 126.06 54.0771 125.933 54.0286C125.83 53.9885 125.822 53.8663 125.82 53.762C125.817 53.6209 125.818 53.4797 125.813 53.3385C125.78 52.403 125.728 51.4693 125.511 50.5537C124.973 48.2854 123.422 46.7983 121.206 46.4576C119.02 46.1217 116.987 46.5686 115.105 47.7233C113.389 48.7766 112.049 50.2396 110.771 51.7664C110.224 52.4203 109.696 53.0905 109.095 53.8323C109.124 53.2006 109.142 52.6757 109.173 52.1511C109.265 50.6098 109.274 49.0753 108.871 47.5661C108.718 46.9973 108.729 47.0171 108.15 47.0877C106.197 47.3264 104.249 47.6344 102.276 47.6652C101.887 47.671 101.834 47.8077 101.884 48.141C102.012 49.0041 102.089 49.8754 102.083 50.7475C102.069 52.7123 101.829 54.6613 101.607 56.6094C101.338 58.9772 101.022 61.3398 100.73 63.705C100.433 66.108 100.086 68.5037 99.6711 70.8891C99.4142 72.3646 99.1147 73.833 98.8412 75.3057C98.7523 75.7863 98.8111 75.8424 99.3041 75.8062C101.336 75.6573 103.368 75.6791 105.399 75.8187C105.896 75.8527 106.047 75.7317 106.103 75.236C106.332 73.2109 106.538 71.183 106.793 69.1614C106.964 67.8033 107.068 66.426 107.468 65.1109C108.702 61.0456 111.013 57.6354 113.952 54.6302C114.69 53.8753 115.564 53.2801 116.619 53.0296C117.76 52.7585 118.426 53.214 118.608 54.3719C118.695 54.9327 118.692 55.4926 118.64 56.0592C118.487 57.7442 118.265 59.4212 118.075 61.1017C117.781 63.6998 117.384 66.2829 116.962 68.862C116.611 71.0103 116.227 73.1532 115.861 75.2992C115.78 75.7792 115.843 75.8386 116.327 75.81C118.422 75.6859 120.519 75.6502 122.614 75.8142C123.089 75.8514 123.24 75.7314 123.296 75.2514C123.58 72.8455 123.882 70.4415 124.132 68.032C124.348 65.9489 124.794 63.9433 125.767 62.07C127.169 59.3699 128.822 56.8504 130.999 54.7101C131.78 53.9423 132.654 53.2962 133.751 53.0308C134.859 52.7636 135.535 53.2044 135.736 54.3318C135.836 54.893 135.839 55.4576 135.779 56.0188C135.596 57.7262 135.391 59.4312 135.201 61.138C134.874 64.0807 134.404 67.0025 133.921 69.9221C133.62 71.7415 133.299 73.5578 132.986 75.3753C132.936 75.6653 132.981 75.8485 133.344 75.8235C135.516 75.6746 137.688 75.6541 139.861 75.8203C140.284 75.8527 140.438 75.7096 140.49 75.2781C140.568 74.629 140.643 73.98 140.714 73.3303C141.035 70.4001 141.272 67.4613 141.631 64.5353C142.019 61.3815 142.397 58.2267 142.766 55.071C142.957 53.4418 142.951 51.8152 142.489 50.2261Z" fill="#575757"/>
</g>
<path fill-rule="evenodd" clip-rule="evenodd" d="M86.0034 53.7343C85.758 55.3285 85.5958 56.9362 85.3434 58.5292C85.1978 59.4477 84.749 60.2732 84.3043 61.0795C82.8219 63.7655 81.0291 66.2192 78.751 68.2873C77.9029 69.0573 76.9617 69.6948 75.8161 69.9569C74.4578 70.2675 73.5793 69.7676 73.1759 68.4278C73.0691 68.0739 72.9955 67.7069 72.943 67.3405C72.8394 66.6154 72.8346 65.8839 72.8512 65.1521C72.951 61.9348 73.6583 58.8837 75.3788 56.1268C76.3693 54.5396 77.6313 53.2264 79.4286 52.5713C81.5016 51.8157 83.5461 52.0085 85.543 52.8966C85.9071 53.0583 86.0734 53.2794 86.0034 53.7343ZM93.5385 46.8399C93.3677 46.89 93.203 46.9628 93.0372 47.0298C92.3386 47.3119 91.6786 47.6808 90.9652 47.933C90.5045 48.096 90.0861 48.1085 89.6414 47.8643C89.1379 47.5878 88.5927 47.3943 88.0444 47.2195C85.4029 46.3763 82.7051 46.2265 79.9721 46.5951C76.7624 47.0282 73.992 48.378 71.6947 50.6716C69.8389 52.5244 68.4879 54.7183 67.4735 57.1262C66.0355 60.5385 65.5089 64.1129 65.6283 67.7964C65.6868 69.6075 65.993 71.3673 66.8439 72.9907C67.9665 75.1304 69.6534 76.4936 72.1231 76.6861C73.8205 76.8183 75.4703 76.543 77.02 75.8291C79.95 74.4794 82.1513 72.3288 83.749 69.5373C83.8542 69.3534 83.9585 69.1693 84.0638 68.9854C84.0948 68.9976 84.1258 69.0095 84.1572 69.0217C84.1418 69.3538 84.1604 69.6916 84.105 70.0169C83.9192 71.1081 83.8485 72.2028 83.8891 73.3093C83.9204 74.1566 84.0039 74.9962 84.1472 75.8314C84.2052 76.1673 84.3232 76.3332 84.7346 76.2671C85.9829 76.0665 87.2363 75.8946 88.5009 75.8195C89.2793 75.773 90.056 75.6992 90.834 75.6447C91.0656 75.6286 91.1258 75.5558 91.081 75.3042C90.7364 73.3741 90.6827 71.436 90.9082 69.4847C91.2637 66.4053 91.6431 63.3288 92.027 60.253C92.4329 56.9978 92.9406 53.7593 93.4826 50.5256C93.6649 49.4393 93.846 48.3533 94.021 47.2657C94.0965 46.794 93.9951 46.7068 93.5385 46.8399Z" fill="#575757"/>
<mask id="mask2_346_2396" style="mask-type:luminance" maskUnits="userSpaceOnUse" x="39" y="46" width="26" height="31">
<path fill-rule="evenodd" clip-rule="evenodd" d="M39.9751 46.3965H64.2055V76.7334H39.9751V46.3965Z" fill="white"/>
</mask>
<g mask="url(#mask2_346_2396)">
<path fill-rule="evenodd" clip-rule="evenodd" d="M63.9005 47.8046C63.641 47.6975 63.3985 47.5508 63.141 47.4379C61.313 46.6368 59.3773 46.4299 57.4098 46.3965C57.1801 46.4077 56.9504 46.4241 56.7207 46.4292C54.8521 46.4703 53.0369 46.8017 51.2899 47.469C47.8979 48.7646 45.3751 51.1018 43.4108 54.1061C41.5173 57.0023 40.4066 60.1753 40.0847 63.6201C39.887 65.7389 39.9113 67.8538 40.5396 69.9094C41.5055 73.0709 43.448 75.3251 46.6845 76.277C48.8164 76.9039 50.9818 76.8375 53.1352 76.3655C56.1887 75.6963 58.8085 74.1624 61.2155 72.2207C61.8412 71.716 61.7203 71.7269 61.3121 71.2405C61.2212 71.1327 61.1393 71.0179 61.0542 70.9056C60.2554 69.8516 59.5743 68.7217 58.9166 67.5769C58.7704 67.3222 58.6485 67.2802 58.4198 67.4749C58.1766 67.6819 57.9124 67.8647 57.6491 68.0463C56.1772 69.0618 54.6547 69.9745 52.854 70.2697C51.9464 70.4186 51.0381 70.3887 50.1664 70.0714C48.5784 69.4936 47.9017 68.2038 47.5985 66.6536C47.3473 65.3709 47.3784 64.076 47.5079 62.7827C47.7757 60.1063 48.6686 57.6702 50.3385 55.5489C51.4371 54.1536 52.7833 53.0936 54.5696 52.7576C56.8237 52.3335 58.9636 52.7653 61.0107 53.7487C61.2606 53.8687 61.5555 54.1507 61.7398 54.0885C61.9909 54.0041 61.9756 53.5873 62.0725 53.3146C62.6602 51.6588 63.3723 50.0559 64.1161 48.4668C64.2684 48.1415 64.2444 47.9468 63.9005 47.8046Z" fill="#575757"/>
</g>
<path fill-rule="evenodd" clip-rule="evenodd" d="M36.1831 46.5093C36.0439 46.5282 35.9038 46.5407 35.7659 46.5657C33.5803 46.9633 31.3978 47.3771 29.2074 47.7477C28.7698 47.8218 28.6591 48.0198 28.6338 48.4105C28.5123 50.2909 28.3795 52.1707 28.2387 54.0495C28.1117 55.7496 27.9962 57.4513 27.8257 59.1469C27.6171 61.224 27.3075 63.2892 27.0199 65.3569C26.5544 68.7055 26.0221 72.0428 25.4488 75.374C25.3755 75.8004 25.403 75.8434 25.833 75.8206C27.8513 75.7134 29.8696 75.621 32.0265 75.8222C32.2085 75.8222 32.5278 75.8196 32.8474 75.8232C33.0521 75.8257 33.1391 75.7327 33.1586 75.5254C33.3576 73.4208 33.5505 71.3151 33.7709 69.2127C33.9904 67.1235 34.2207 65.0348 34.4818 62.9504C34.7572 60.752 35.0855 58.5604 35.3715 56.363C35.7816 53.2134 36.144 50.0577 36.6041 46.9145C36.6732 46.4425 36.6732 46.4425 36.1831 46.5093Z" fill="#575757"/>
<path fill-rule="evenodd" clip-rule="evenodd" d="M25.4395 24.9453C25.6603 24.0659 25.8714 23.1795 26.3023 22.3742C26.8772 21.3007 27.7451 20.4973 28.7714 19.8723C29.0484 19.7036 29.4147 19.7488 29.7417 19.7369C30.2523 19.7177 30.7644 19.7318 31.2756 19.7318C31.608 19.7318 31.9407 19.7238 32.2728 19.7331C33.6468 19.7719 34.865 20.2897 36.025 20.9776C36.1792 21.069 36.312 21.1999 36.3856 21.3674C36.6697 22.0126 37.1658 22.5288 37.4662 23.1631C37.9762 24.2401 38.3303 25.348 38.4864 26.5501C38.6246 27.6166 38.0434 28.3051 37.5203 29.0337C36.4198 30.5651 34.9904 31.7008 33.1705 32.253C31.2161 32.8459 29.4714 32.4496 27.9988 30.9911C26.8945 29.8968 26.1005 28.5945 25.5089 27.169C25.2111 26.451 25.2517 25.6922 25.4395 24.9453ZM26.7902 32.0319C28.6879 33.9361 30.9247 34.5354 33.4955 33.8077C35.9684 33.1073 37.814 31.5474 39.1944 29.4187C39.6749 28.6779 40.2322 27.9339 40.069 27.008C40.1298 25.46 39.6212 24.1083 39.0578 22.7678C38.7628 22.0655 38.2651 21.4874 37.9122 20.821C37.496 20.0353 36.8571 19.4851 36.0513 19.1261C35.478 18.8704 34.8836 18.6724 34.2822 18.4998C33.9549 18.4061 33.6865 18.1687 33.3164 18.1719C31.8073 18.1854 30.2983 18.1796 28.7893 18.177C28.6054 18.1767 28.447 18.2229 28.2822 18.3108C27.1002 18.9419 26.1283 19.813 25.3522 20.8993C24.4536 22.1567 24.0729 23.6184 23.7856 25.1054C23.5997 26.0692 23.6759 27.034 24.0815 27.9291C24.7655 29.437 25.6072 30.8448 26.7902 32.0319Z" fill="#F5C41C"/>
<path fill-rule="evenodd" clip-rule="evenodd" d="M1.83127 34.5082C1.7081 34.506 1.70523 34.4428 1.75225 34.3542C1.70139 34.3812 1.6502 34.4085 1.59933 34.4357C1.84119 34.6231 1.63357 35.0585 2.01778 35.1791C2.15118 35.2211 2.19725 35.3809 2.26763 35.5051C2.57346 36.046 3.01494 36.44 3.61125 36.7364C3.53447 36.4021 3.51528 36.3534 3.39275 36.285C2.79292 35.9501 2.51204 35.3434 2.13966 34.8146C1.9394 34.8102 1.84151 34.7033 1.83127 34.5082Z" fill="#EBA33D"/>
<path fill-rule="evenodd" clip-rule="evenodd" d="M7.33696 38.4187C7.52059 38.4832 7.68598 38.6067 7.89424 38.5913C7.9096 38.6254 7.92495 38.659 7.94063 38.6927C8.04652 38.7245 8.15241 38.7518 8.27046 38.7117C8.14825 38.6481 8.0366 38.574 7.89552 38.5875C7.87505 38.4868 7.77971 38.471 7.70997 38.4264C7.29377 38.1618 6.82286 38.0382 6.35803 37.8977C6.48312 38.1986 6.76592 38.3061 7.02377 38.4438C7.11398 38.2635 7.23139 38.3815 7.33696 38.4187Z" fill="#F4D7AE"/>
<path fill-rule="evenodd" clip-rule="evenodd" d="M27.9145 43.4501C27.925 43.3919 28.0117 43.3257 27.9237 43.3049C27.5274 43.2108 27.1268 43.174 26.7046 43.302C26.9263 43.5145 27.2158 43.3503 27.4036 43.5359C27.4541 43.6085 27.5018 43.5986 27.5472 43.5301C27.6185 43.3932 27.6979 43.4233 27.7807 43.5189C27.8418 43.5996 27.8933 43.5839 27.9388 43.5036C27.9157 43.4879 27.9109 43.4697 27.9145 43.4501Z" fill="#F7EAD5"/>
<path fill-rule="evenodd" clip-rule="evenodd" d="M50.6217 31.0888C50.9605 30.7372 51.2858 30.3753 51.5111 29.9325C51.5063 29.8639 51.5011 29.7946 51.496 29.7256C51.1784 30.1613 50.861 30.5966 50.5433 31.0323L50.6217 31.0888Z" fill="#F4D09D"/>
<path fill-rule="evenodd" clip-rule="evenodd" d="M11.8363 41.0036C11.8644 41.0065 11.8929 41.0091 11.9214 41.0116L11.9217 41.0113C12.1159 41.0699 12.3101 41.1284 12.5043 41.1867L12.6172 41.0996C12.2314 40.9412 11.8229 40.8836 11.4006 40.8328C11.5522 40.9755 11.6459 41.18 11.8833 41.2014C11.8744 41.1617 11.8657 41.1224 11.8568 41.0827C11.8497 41.0564 11.843 41.0302 11.8363 41.0036Z" fill="#EBA33D"/>
<path fill-rule="evenodd" clip-rule="evenodd" d="M6.50531 39.2555C6.76284 39.4695 6.9743 39.6257 7.24366 39.6852C7.07859 39.451 6.92215 39.2027 6.50531 39.2555Z" fill="#ECBA74"/>
<path fill-rule="evenodd" clip-rule="evenodd" d="M9.30809 40.6881C9.16189 40.5233 8.98466 40.45 8.70282 40.466C8.91652 40.6347 9.08767 40.7252 9.30809 40.6881Z" fill="#F4D7AE"/>
<path fill-rule="evenodd" clip-rule="evenodd" d="M26.3224 43.5984C26.5332 43.694 26.7415 43.7337 26.9418 43.5728C26.7338 43.5462 26.5256 43.5078 26.3224 43.5984Z" fill="#F7EAD5"/>
<path fill-rule="evenodd" clip-rule="evenodd" d="M8.50458 40.2823C8.50554 40.2833 8.50618 40.2839 8.50714 40.2852L8.51034 40.282C8.5081 40.282 8.5065 40.2823 8.50458 40.2823Z" fill="#F4D7AE"/>
<path fill-rule="evenodd" clip-rule="evenodd" d="M8.02002 40.2242C8.2337 40.3055 8.23594 40.3062 8.50536 40.2822C8.32404 40.0889 8.28912 40.085 8.02002 40.2242Z" fill="#F4D7AE"/>
<path fill-rule="evenodd" clip-rule="evenodd" d="M11.893 41.2124C11.9208 41.317 12.0034 41.3631 12.0968 41.3977C12.1042 41.357 12.1116 41.3164 12.1186 41.2761C12.0434 41.255 11.9682 41.2335 11.893 41.2124Z" fill="#EBA33D"/>
<path fill-rule="evenodd" clip-rule="evenodd" d="M7.42339 38.6745C7.34499 38.5814 7.24611 38.5276 7.12387 38.5183C7.15651 38.6994 7.30019 38.6671 7.42339 38.6745Z" fill="#F4D7AE"/>
<path fill-rule="evenodd" clip-rule="evenodd" d="M8.51083 40.2859C8.52011 40.3432 8.50891 40.4148 8.60139 40.4132C8.61067 40.4132 8.62763 40.3982 8.62827 40.3892C8.63435 40.3035 8.57195 40.2948 8.51083 40.2859Z" fill="#F4D7AE"/>
<path fill-rule="evenodd" clip-rule="evenodd" d="M8.50723 40.2852C8.50851 40.2852 8.50947 40.2855 8.51075 40.2858C8.51075 40.2845 8.51075 40.2833 8.51043 40.282L8.50723 40.2852Z" fill="#F4D7AE"/>
<path fill-rule="evenodd" clip-rule="evenodd" d="M28.32 43.4526C28.2656 43.4594 28.2109 43.4661 28.1565 43.4725C28.2307 43.6254 28.2807 43.5819 28.32 43.4526Z" fill="#F7EAD5"/>
<path fill-rule="evenodd" clip-rule="evenodd" d="M27.5472 43.5309C27.625 43.527 27.7028 43.5235 27.7808 43.5194C27.698 43.4237 27.6186 43.3939 27.5472 43.5309Z" fill="#EF9917"/>
<path fill-rule="evenodd" clip-rule="evenodd" d="M7.66735 38.7664C7.61007 38.7472 7.55279 38.7277 7.49551 38.7085C7.53295 38.7872 7.57999 38.8365 7.66735 38.7664Z" fill="#F4D7AE"/>
<path fill-rule="evenodd" clip-rule="evenodd" d="M0.295458 31.8137L0.299938 31.8086L0.274658 31.8003L0.295458 31.8137Z" fill="#EF9917"/>
<path fill-rule="evenodd" clip-rule="evenodd" d="M7.81851 38.804L7.89211 38.8222C7.88859 38.8033 7.88315 38.7848 7.87579 38.7668C7.85147 38.771 7.83227 38.7835 7.81851 38.804Z" fill="#F4D7AE"/>
<path fill-rule="evenodd" clip-rule="evenodd" d="M41.6679 35.2693C41.3807 35.4175 41.0915 35.5612 40.801 35.6998C40.5099 35.8381 40.2175 35.9719 39.9232 36.1006C39.3345 36.3582 38.7388 36.5959 38.1355 36.8131C37.5325 37.0303 36.9218 37.2273 36.3037 37.4031C35.6856 37.579 35.0599 37.7342 34.4265 37.8677C35.7374 37.8475 37.026 37.6787 38.2961 37.3791C38.7638 37.2687 39.2376 37.1847 39.6563 36.8998C40.3915 36.3993 41.1388 35.9177 41.8225 35.346C41.793 35.276 41.7243 35.2856 41.6679 35.2693Z" fill="#F7F1E5"/>
<path fill-rule="evenodd" clip-rule="evenodd" d="M12.6059 41.4457C13.0743 41.771 13.6098 41.8358 14.1729 41.8182C13.5548 41.7595 13.0596 41.3969 12.5042 41.1874C12.31 41.129 12.1158 41.0703 11.9217 41.0116L11.9213 41.0119C11.8929 41.0094 11.8647 41.0068 11.8362 41.0039C11.8433 41.0305 11.85 41.0568 11.8567 41.0832C11.8657 41.1229 11.8743 41.1624 11.8833 41.2022C11.8839 41.2047 11.8845 41.2073 11.8852 41.2102C11.8877 41.2108 11.8903 41.2115 11.8929 41.2121C11.968 41.2336 12.0435 41.2548 12.1187 41.276C12.3129 41.2407 12.4585 41.3433 12.6059 41.4457Z" fill="#FBFAFA"/>
<path fill-rule="evenodd" clip-rule="evenodd" d="M41.8226 35.345C42.0123 35.2691 42.1758 35.1645 42.2942 34.9392C42.1585 34.9712 42.0478 35.0234 41.9483 35.0826C41.8485 35.1414 41.7599 35.208 41.6681 35.2685C41.7241 35.2848 41.7929 35.2752 41.8226 35.345Z" fill="#F4D09D"/>
<path fill-rule="evenodd" clip-rule="evenodd" d="M1.83458 34.5051C1.85445 34.4629 1.85541 34.4303 1.84099 34.4056C1.8333 34.3928 1.82177 34.3819 1.80735 34.373C1.79326 34.3643 1.77564 34.3573 1.75578 34.3515C1.75513 34.3512 1.75449 34.3509 1.75385 34.3506C1.75321 34.3519 1.75289 34.3528 1.75225 34.3541C1.70548 34.4424 1.70804 34.5055 1.83138 34.5077C1.84163 34.7023 1.93966 34.8091 2.14021 34.8133C2.14053 34.8133 2.14053 34.8136 2.14085 34.8136C2.14085 34.812 2.14021 34.8111 2.13988 34.8098C2.11778 34.6287 2.01142 34.5317 1.83458 34.5051Z" fill="#FBFAFA"/>
<path fill-rule="evenodd" clip-rule="evenodd" d="M1.05181 32.0973C1.05469 32.1168 1.07645 32.1331 1.08989 32.151C1.10237 32.1347 1.11485 32.1184 1.12797 32.1011C1.11293 32.0838 1.09917 32.0672 1.08509 32.0505C1.07293 32.0662 1.04989 32.0838 1.05181 32.0973Z" fill="#FBFAFA"/>
<path fill-rule="evenodd" clip-rule="evenodd" d="M30.5898 22.9528C30.9954 22.888 31.4014 22.8563 31.8112 22.897C32.0927 22.897 32.3743 22.8877 32.6551 22.8989C33.3877 22.9278 33.8439 23.3908 34.1939 23.9602C34.7893 24.9285 35.0557 25.9661 34.556 27.0569C34.1683 27.9033 33.4319 28.2658 32.5345 28.2382C31.3912 28.2029 30.4436 27.7227 29.7203 26.8221C29.5341 26.5898 29.4093 26.3411 29.3757 26.0296C29.321 25.5214 29.2257 25.019 29.2356 24.5041C29.251 23.6789 29.7686 23.0837 30.5898 22.9528ZM27.9988 30.991C29.4711 32.4495 31.2162 32.8457 33.1705 32.2531C34.9905 31.701 36.4198 30.5649 37.5203 29.0336C38.0434 28.3053 38.6247 27.6165 38.4865 26.55C38.3303 25.3482 37.9759 24.2403 37.4663 23.163C37.1659 22.529 36.6697 22.0128 36.3856 21.3676C36.312 21.2001 36.1793 21.0689 36.0251 20.9775C34.8651 20.2896 33.6469 19.7718 32.2728 19.7329C31.9408 19.7236 31.6081 19.7317 31.2757 19.7317C30.7641 19.7317 30.2523 19.7179 29.7417 19.7368C29.4148 19.749 29.0485 19.7037 28.7711 19.8725C27.7451 20.4975 26.8772 21.3005 26.3024 22.3744C25.8714 23.1793 25.6603 24.0661 25.4396 24.9452C25.2518 25.6924 25.2111 26.4512 25.509 27.1689C26.1005 28.5944 26.8945 29.8969 27.9988 30.991Z" fill="#EA6E12"/>
<path fill-rule="evenodd" clip-rule="evenodd" d="M29.7203 26.8219C30.4437 27.7225 31.3912 28.2028 32.5343 28.2381C33.4319 28.2657 34.1684 27.9031 34.5561 27.0564C35.0558 25.9659 34.7893 24.9283 34.1936 23.9601C33.844 23.3906 33.3878 22.9276 32.6552 22.8988C32.3743 22.8875 32.0928 22.8968 31.8113 22.8968C31.4011 22.8561 30.9952 22.8878 30.5899 22.9527C29.7683 23.0836 29.251 23.6787 29.2354 24.5039C29.2258 25.0188 29.3208 25.5212 29.3755 26.0294C29.4091 26.341 29.5338 26.5896 29.7203 26.8219Z" fill="#A5010C"/>
</svg>
